<svg width="725" height="143" viewBox="0 0 725 143" fill="none" xmlns="http://www.w3.org/2000/svg">
    <path d="M443.595 1H454.764L453.993 2.53425L447.831 9.05479L432.811 24.0137L430.115 27.0822L425.878 31.3014L423.182 34.3699L415.48 42.0411L413.169 44.726L410.088 47.411L404.311 53.5479L399.304 58.5342L396.608 61.6027L394.297 63.9041L394.682 65.8219L397.378 68.8904L402 74.2603L405.466 78.0959L408.932 82.3151L412.399 86.1507L415.865 90.3699L419.331 94.2055L422.797 98.4247L427.034 103.027L430.5 107.247L433.966 111.082L437.432 115.301L441.284 119.521L444.75 123.74L448.601 127.959L452.068 132.178L459 140.233V141H447.446L444.75 138.315L442.054 135.247L437.432 129.877L433.581 125.658L430.115 121.438L425.878 116.836L423.182 113.767L418.561 108.397L415.095 104.562L412.399 101.493L407.777 96.1233L404.311 92.2877L400.074 87.3014L396.608 83.4658L393.912 80.3973L390.446 76.5616L387.365 72.726L385.824 73.1096L379.277 79.6301L376.581 82.6986L355.784 103.411L355.399 104.562L355.014 141H345.385L345 140.616V1.38356H355.014V90.7534L358.095 88.0685L363.872 81.9315L368.878 76.9452L371.574 73.8767L388.135 57.3836L390.831 54.3151L398.149 47.0274L400.845 43.9589L413.939 30.9178L416.635 27.8493L423.953 20.5616L424.338 19.7945H425.108L425.878 18.2603L442.824 1.38356L443.595 1Z" fill="#5DB0C5"/>
    <path d="M0 1H9.62838V90.2308L11.5541 89.0769L22.3378 78.3077L25.0338 75.2308L30.4257 69.8462L33.1216 66.7692L52.7635 47.1538L55.4595 44.0769L60.8514 38.6923L63.5473 35.6154L70.8649 28.3077L73.5608 25.2308L90.8919 7.92308L93.5878 4.84615L97.4392 1H109.378L107.068 3.69231L98.2095 12.5385L95.5135 15.6154L91.277 20.2308L73.9459 37.5385L71.25 40.6154L67.0135 44.8462L64.3176 47.9231L59.6959 52.5385L57 55.6154L48.527 64.0769L49.2973 65.6154L52.3784 69.0769L55.8446 73.3077L58.9257 76.7692L61.6216 79.8462L65.0878 84.0769L69.3243 88.6923L72.7905 92.9231L76.2568 96.7692L78.9527 99.8462L82.4189 104.077L86.2703 108.308L89.7365 112.538L94.7432 118.308L98.2095 122.154L101.676 126.385L104.757 129.846L107.453 132.923L110.919 137.154L114 140.231L113.615 141H102.446L99.75 138.692L96.2838 134.462L92.4324 130.231L88.9662 126L84.3446 121L81.6487 117.923L77.027 112.538L72.0203 106.769L68.1689 102.538L64.7027 98.3077L60.8514 94.0769L58.1554 91L53.5338 85.6154L49.6824 81.3846L46.2162 77.1538L43.5203 74.4615L41.5946 72.1538L38.8987 74.4615L20.027 93.3077L17.3311 96.3846L12.7095 101.385L10.7838 103.308H10.0135L9.62838 141L0 140.615V1Z" fill="#5FC6B0"/>
    <path d="M254.091 0H266.044L275.298 1.15447L283.009 3.07859L289.564 5.38753L296.119 8.46612L301.517 11.9295L305.373 15.0081L310 19.2412L304.602 24.6287L304.216 25.3984L302.674 25.0136L299.204 21.935L292.263 17.3171L286.094 14.2385L281.082 12.3144L272.984 10.3902L267.201 9.6206H254.476L246.379 10.7751L237.511 13.084L230.185 16.1626L223.245 20.3957L218.232 24.2439L214.376 27.7073L211.677 30.7859L209.364 33.4797L205.122 40.0217L201.652 47.3333L199.724 53.1057L198.182 60.0325L197.411 67.729V75.4255L198.567 84.2764L200.495 91.5881L202.423 96.5908L207.05 105.442L210.906 110.444L215.533 115.447L220.16 119.68L226.329 123.528L232.884 126.992L239.824 129.686L248.307 131.61L253.705 132.379H267.201L274.912 131.225L283.009 128.916L289.95 125.837L295.734 122.374L301.132 118.141L303.06 116.602L304.602 116.986L307.301 120.065L309.614 121.989L308.843 123.528L304.987 127.377L299.204 131.61L290.335 136.228L283.009 138.921L275.298 140.846L266.815 142H253.705L244.451 140.846L237.897 139.306L230.956 136.997L224.016 133.919L217.075 129.686L212.063 125.837L206.279 120.45L201.652 115.447L197.025 108.52L193.555 101.978L191.241 96.206L188.928 88.8943L187.386 80.0434L187 70.4228L187.771 59.6477L189.699 50.4119L192.784 41.561L197.025 33.4797L201.266 27.3225L205.893 21.935L209.749 18.0867L215.147 13.8537L220.931 10.0054L229.028 5.77236L238.282 2.69377L247.15 0.769648L254.091 0Z" fill="#61B8BD"/>
    <path d="M552.184 2H560.611L567.506 3.15259L573.251 5.07357L580.529 8.91553L584.36 11.9891L587.041 14.2943L591.254 19.673L594.319 25.436L596.234 31.1989L597 36.1935V41.5722L595.851 47.3352L593.936 52.3297L591.254 57.3243L587.041 62.703L584.36 65.7766L583.594 67.3134V71.1553L586.275 74.2289L590.105 78.455L593.17 83.4496L595.851 89.9809L597 96.1281V102.275L595.468 109.191L592.787 115.338L590.105 119.564L586.275 123.79L583.977 126.864L583.594 127.632V131.474L585.126 134.932L588.19 138.774L592.404 142.616L591.637 143L585.126 141.079L577.465 138.005L570.953 134.163L567.123 134.548L559.462 135.7H554.482L546.439 134.548L540.31 132.627L534.181 129.553L529.968 126.48L525.371 122.253L521.158 116.49L518.477 110.728L516.561 104.58L510.816 105.349H501.24L493.962 103.812H492.047L485.535 107.654L478.257 110.728L472.512 112.264H470.596L472.512 110.343L475.576 107.654L478.64 103.428L479.406 101.507V97.2807L477.108 94.2071L473.661 90.3651L470.213 84.9864L468.298 81.1444L466.766 76.1499L466 71.5395V66.9292L466.766 61.5504L468.681 55.4033L472.129 49.2561L475.576 45.03L478.64 41.9564L484.003 38.1144L489.365 35.4251L495.111 33.5041L500.474 32.3515L503.538 31.9673H508.518L514.263 32.7357L516.561 33.1199L518.477 26.9728L520.392 22.3624L523.073 18.1362L527.67 13.1417L531.5 9.68392L537.246 6.22616L542.991 3.92098L549.503 2.3842L552.184 2ZM551.418 6.99455L545.673 8.14714L539.544 10.4523L533.415 14.2943L527.67 20.0572L524.988 24.2834L523.073 28.5095L521.541 33.5041V35.0409L527.67 38.1144L531.883 40.8038L535.713 44.2616L538.395 46.951L541.842 52.3297L544.14 57.3243L546.056 63.4714L552.567 62.703H560.228L567.123 63.8556L573.635 66.1608L578.231 68.0817L579.763 63.8556L582.061 60.782L585.892 56.5559L588.956 51.5613L591.254 45.7984L592.02 41.5722V35.8093L590.871 30.0463L588.956 25.436L586.658 21.594L583.211 17.3678L579.763 14.2943L574.784 11.2207L570.187 8.91553L564.058 7.37875L561.76 6.99455H551.418ZM504.304 36.9619L498.175 37.7302L491.664 39.6512L485.152 43.109L480.939 46.5668L477.491 50.0245L474.81 54.2507L472.512 58.861L471.363 63.4714L470.98 66.1608V71.5395L472.129 77.3025L474.044 81.9128L476.342 85.7548L480.556 90.7493L483.62 94.9755L484.386 96.8965L484.769 102.275L486.684 101.507L490.515 99.2016L493.962 98.8174L501.24 100.354L506.985 100.738L515.029 99.5858L521.158 97.6648L526.52 94.9755L531.5 91.1335L534.564 88.0599L538.012 83.0654L540.693 76.5341L541.842 70.3869L541.459 64.2398L539.544 57.7084L537.246 53.0981L534.564 49.6403L532.266 46.951L527.287 43.109L521.541 40.0354L515.795 38.1144L511.965 37.3461L508.135 36.9619H504.304ZM552.95 67.3134L546.822 68.4659L546.439 69.2343L545.673 75.3815L543.374 82.297L540.31 88.0599L536.096 93.0545L532.266 96.5123L526.137 100.354L521.541 102.659L521.924 105.733L524.222 111.88L527.287 116.875L530.734 120.717L534.181 123.79L539.927 127.248L544.906 129.169L552.567 130.706H560.228L568.655 129.169L572.102 129.553L578.231 132.627L578.614 127.248L580.146 123.79L583.211 119.948L586.275 116.49L589.339 111.112L591.254 106.117L592.02 101.891V96.5123L590.871 90.3651L587.424 83.0654L584.36 79.2234L580.912 75.7657L575.167 71.9237L569.038 69.2343L563.292 67.6975L560.228 67.3134H552.95Z" fill="#5CADCF"/>
    <path d="M552.184 2H560.611L567.506 3.15259L573.251 5.07357L580.529 8.91553L584.36 11.9891L587.041 14.2943L591.254 19.673L594.319 25.436L596.234 31.1989L597 36.1935V41.5722L595.851 47.3352L593.936 52.3297L591.254 57.3243L587.041 62.703L584.36 65.7766L583.594 67.3134V71.1553L586.275 74.2289L590.105 78.455L593.17 83.4496L595.851 89.9809L597 96.1281V102.275L595.468 109.191L592.787 115.338L590.105 119.564L586.275 123.79L583.977 126.864L583.594 127.632V131.474L585.126 134.932L588.19 138.774L592.404 142.616L591.637 143L585.126 141.079L577.465 138.005L570.953 134.163L567.123 134.548L559.462 135.7H554.482L546.439 134.548L540.31 132.627L534.181 129.553L529.968 126.48L525.371 122.253L521.158 116.49L518.477 110.728L516.561 104.58L510.816 105.349H501.24L493.962 103.812H492.047L485.535 107.654L478.257 110.728L472.512 112.264H470.596L472.512 110.343L475.576 107.654L478.64 103.428L479.406 101.507V97.2807L477.108 94.2071L473.661 90.3651L470.213 84.9864L468.298 81.1444L466.766 76.1499L466 71.5395V66.9292L466.766 61.5504L468.681 55.4033L472.129 49.2561L475.576 45.03L478.64 41.9564L484.003 38.1144L489.365 35.4251L495.111 33.5041L500.474 32.3515L503.538 31.9673H508.518L514.263 32.7357L516.561 33.1199L518.477 26.9728L520.392 22.3624L523.073 18.1362L527.67 13.1417L531.5 9.68392L537.246 6.22616L542.991 3.92098L549.503 2.3842L552.184 2ZM551.418 6.99455L545.673 8.14714L539.544 10.4523L533.415 14.2943L527.67 20.0572L524.988 24.2834L523.073 28.5095L521.541 33.5041V35.0409L527.67 38.1144L531.883 40.8038L535.713 44.2616L538.395 46.951L541.842 52.3297L544.14 57.3243L546.056 63.4714L552.567 62.703H560.228L567.123 63.8556L573.635 66.1608L578.231 68.0817L579.763 63.8556L582.061 60.782L585.892 56.5559L588.956 51.5613L591.254 45.7984L592.02 41.5722V35.8093L590.871 30.0463L588.956 25.436L586.658 21.594L583.211 17.3678L579.763 14.2943L574.784 11.2207L570.187 8.91553L564.058 7.37875L561.76 6.99455H551.418ZM504.304 36.9619L498.175 37.7302L491.664 39.6512L485.152 43.109L480.939 46.5668L477.491 50.0245L474.81 54.2507L472.512 58.861L471.363 63.4714L470.98 66.1608V71.5395L472.129 77.3025L474.044 81.9128L476.342 85.7548L480.556 90.7493L483.62 94.9755L484.386 96.8965L484.769 102.275L486.684 101.507L490.515 99.2016L493.962 98.8174L501.24 100.354L506.985 100.738L515.029 99.5858L521.158 97.6648L526.52 94.9755L531.5 91.1335L534.564 88.0599L538.012 83.0654L540.693 76.5341L541.842 70.3869L541.459 64.2398L539.544 57.7084L537.246 53.0981L534.564 49.6403L532.266 46.951L527.287 43.109L521.541 40.0354L515.795 38.1144L511.965 37.3461L508.135 36.9619H504.304ZM552.95 67.3134L546.822 68.4659L546.439 69.2343L545.673 75.3815L543.374 82.297L540.31 88.0599L536.096 93.0545L532.266 96.5123L526.137 100.354L521.541 102.659L521.924 105.733L524.222 111.88L527.287 116.875L530.734 120.717L534.181 123.79L539.927 127.248L544.906 129.169L552.567 130.706H560.228L568.655 129.169L572.102 129.553L578.231 132.627L578.614 127.248L580.146 123.79L583.211 119.948L586.275 116.49L589.339 111.112L591.254 106.117L592.02 101.891V96.5123L590.871 90.3651L587.424 83.0654L584.36 79.2234L580.912 75.7657L575.167 71.9237L569.038 69.2343L563.292 67.6975L560.228 67.3134H552.95Z" fill="#5CADCF"/>
    <path d="M635 71H725V79.3696L645.043 79.75V141H635V71Z" fill="#58A3D4"/>
    <path d="M142 1H151V141H142V1Z" fill="#56BDB5"/>
    <path d="M635 1H725V9.6087L635.386 10L635 9.6087V1Z" fill="#58A3D4"/>
    <path d="M421.103 23L423 23.3793L420.724 26.0345L419.207 26.7931L418.448 28.3103L417.31 28.6897V29.4483H416.552V30.2069L413.517 32.8621L412.759 34L412 33.6207L412.379 32.1034L417.69 26.4138L421.103 23Z" fill="#5CADCE"/>
    <path d="M150.64 128H151V141H142V138.029L142.72 137.657V138.4L145.96 139.514L148.84 139.886L150.28 139.143L150.64 128Z" fill="#5FC4B1"/>
    <path d="M221 131L223.771 131.857L225.75 133.143L229.312 134.857L236.042 137.429L240 139.571L238.417 140L231.292 137.429L224.167 134L221 131.857V131Z" fill="#5DB0C5"/>
    <path d="M86.8333 24L88 24.3611L85.6667 26.8889L74.7778 37L74 36.2778L75.9444 34.4722H76.7222L77.1111 33.3889L77.5 32.6667H78.6667V31.9444H79.4444L79.8333 30.8611L80.2222 30.1389H81.3889V29.4167H82.1667L82.5556 28.3333L84.1111 27.6111V26.8889H84.8889L85.2778 25.8056L86.0556 25.0833L86.8333 24.7222V24Z" fill="#56BEB4"/>
    <path d="M391.6 54L392 54.7143L390.4 56.8571L386.4 60.4286L386 61.1429H385.2V62.2143H384.4V62.9286L383.2 64H382.4L382 62.9286L388 57.5714L390.8 54.7143L391.6 54Z" fill="#5CADCF"/>
    <path d="M279 11L284.122 12.1667L290.341 15.2778L294 18H292.902L287.049 14.8889L281.561 12.5556L279 11.7778V11Z" fill="#5EB1C4"/>
    <path d="M376.875 68H377.625L378 69.125L377.625 69.875L376.875 69.5L375.75 70.625V71.75L373.125 72.5L372.375 74L372 72.875L376.875 68Z" fill="#5CAECC"/>
    <path d="M474.091 109L475 109.375L474.545 111.25L472.273 112H470L472.273 110.125L474.091 109Z" fill="#59A7D1"/>
    <path d="M201.6 27L202 28.6L200.4 30.6L199.6 32.6L198 33L198.8 31L201.6 27Z" fill="#5DB0C6"/>
    <path d="M148 1H151V4L148.333 2L148 1Z" fill="#60C7B0"/>
</svg>
