<svg width="131" height="141" viewBox="0 0 131 141" fill="none" xmlns="http://www.w3.org/2000/svg">
    <g clip-path="url(#clip0_1143_7)">
        <path d="M86.1842 0H94.6111L101.506 1.15259L107.251 3.07357L114.529 6.91553L118.36 9.9891L121.041 12.2943L125.254 17.673L128.319 23.436L130.234 29.1989L131 34.1935V39.5722L129.851 45.3352L127.936 50.3297L125.254 55.3243L121.041 60.703L118.36 63.7766L117.594 65.3134V69.1553L120.275 72.2289L124.105 76.455L127.17 81.4496L129.851 87.9809L131 94.1281V100.275L129.468 107.191L126.787 113.338L124.105 117.564L120.275 121.79L117.977 124.864L117.594 125.632V129.474L119.126 132.932L122.19 136.774L126.404 140.616L125.637 141L119.126 139.079L111.465 136.005L104.953 132.163L101.123 132.548L93.462 133.7H88.4825L80.4386 132.548L74.3099 130.627L68.1813 127.553L63.9678 124.48L59.3713 120.253L55.1579 114.49L52.4766 108.728L50.5614 102.58L44.8158 103.349H35.2398L27.962 101.812H26.0468L19.5351 105.654L12.2573 108.728L6.5117 110.264H4.59649L6.5117 108.343L9.57602 105.654L12.6404 101.428L13.4064 99.5068V95.2807L11.1082 92.2071L7.66082 88.3651L4.21345 82.9864L2.29825 79.1444L0.766082 74.1499L0 69.5395V64.9292L0.766082 59.5504L2.68129 53.4033L6.12865 47.2561L9.57602 43.03L12.6404 39.9564L18.0029 36.1144L23.3655 33.4251L29.1111 31.5041L34.4737 30.3515L37.538 29.9673H42.5175L48.2632 30.7357L50.5614 31.1199L52.4766 24.9728L54.3918 20.3624L57.0731 16.1362L61.6696 11.1417L65.5 7.68392L71.2456 4.22616L76.9912 1.92098L83.5029 0.384196L86.1842 0ZM85.4181 4.99455L79.6725 6.14714L73.5439 8.45232L67.4152 12.2943L61.6696 18.0572L58.9883 22.2834L57.0731 26.5095L55.5409 31.5041V33.0409L61.6696 36.1144L65.883 38.8038L69.7134 42.2616L72.3947 44.951L75.8421 50.3297L78.1404 55.3243L80.0556 61.4714L86.5673 60.703H94.2281L101.123 61.8556L107.635 64.1608L112.231 66.0817L113.763 61.8556L116.061 58.782L119.892 54.5559L122.956 49.5613L125.254 43.7984L126.02 39.5722V33.8093L124.871 28.0463L122.956 23.436L120.658 19.594L117.211 15.3678L113.763 12.2943L108.784 9.22071L104.187 6.91553L98.0585 5.37875L95.7602 4.99455H85.4181ZM38.3041 34.9619L32.1754 35.7302L25.6637 37.6512L19.152 41.109L14.9386 44.5668L11.4912 48.0245L8.80994 52.2507L6.5117 56.861L5.36257 61.4714L4.97953 64.1608V69.5395L6.12865 75.3025L8.04386 79.9128L10.3421 83.7548L14.5556 88.7493L17.6199 92.9755L18.386 94.8965L18.769 100.275L20.6842 99.5068L24.5146 97.2016L27.962 96.8174L35.2398 98.3542L40.9854 98.7384L49.0292 97.5858L55.1579 95.6648L60.5205 92.9755L65.5 89.1335L68.5643 86.0599L72.0117 81.0654L74.693 74.5341L75.8421 68.3869L75.4591 62.2398L73.5439 55.7084L71.2456 51.0981L68.5643 47.6403L66.2661 44.951L61.2865 41.109L55.5409 38.0354L49.7953 36.1144L45.9649 35.3461L42.1345 34.9619H38.3041ZM86.9503 65.3134L80.8216 66.4659L80.4386 67.2343L79.6725 73.3815L77.3743 80.297L74.3099 86.0599L70.0965 91.0545L66.2661 94.5123L60.1374 98.3542L55.5409 100.659L55.924 103.733L58.2222 109.88L61.2865 114.875L64.7339 118.717L68.1813 121.79L73.9269 125.248L78.9064 127.169L86.5673 128.706H94.2281L102.655 127.169L106.102 127.553L112.231 130.627L112.614 125.248L114.146 121.79L117.211 117.948L120.275 114.49L123.339 109.112L125.254 104.117L126.02 99.891V94.5123L124.871 88.3651L121.424 81.0654L118.36 77.2234L114.912 73.7657L109.167 69.9237L103.038 67.2343L97.2924 65.6975L94.2281 65.3134H86.9503Z" fill="#5CADCF"/>
    </g>
    <defs>
        <clipPath id="clip0_1143_7">
            <rect width="131" height="141" fill="white"/>
        </clipPath>
    </defs>
</svg>
